HIERARCHY
ROOT root
{
	OFFSET 0.000000 0.000000 0.000000
	CHANNELS 6 Xposition Yposition Zposition Zrotation Yrotation Xrotation
	JOINT lhip
	{
		OFFSET 0.058581 -0.082280 -0.017664
		CHANNELS 3 Zrotation Yrotation Xrotation
		JOINT lknee
		{
			OFFSET 0.043451 -0.386469 0.008037
			CHANNELS 3 Zrotation Yrotation Xrotation
			JOINT lankle
			{
				OFFSET -0.014790 -0.426874 -0.037428
				CHANNELS 3 Zrotation Yrotation Xrotation
				JOINT ltoe
				{
					OFFSET 0.041054 -0.060286 0.122042
					CHANNELS 3 Zrotation Yrotation Xrotation
					End Site
					{
						OFFSET 0.000000 0.000000 0.000000
					}
				}
			}
		}
	}
	JOINT rhip
	{
		OFFSET -0.060310 -0.090513 -0.013543
		CHANNELS 3 Zrotation Yrotation Xrotation
		JOINT rknee
		{
			OFFSET -0.043257 -0.383688 -0.004843
			CHANNELS 3 Zrotation Yrotation Xrotation
			JOINT rankle
			{
				OFFSET 0.019056 -0.420046 -0.034562
				CHANNELS 3 Zrotation Yrotation Xrotation
				JOINT rtoe
				{
					OFFSET -0.034840 -0.062106 0.130323
					CHANNELS 3 Zrotation Yrotation Xrotation
					End Site
					{
						OFFSET 0.000000 0.000000 0.000000
					}
				}
			}
		}
	}
	JOINT lowerback
	{
		OFFSET 0.004439 0.124404 -0.038385
		CHANNELS 3 Zrotation Yrotation Xrotation
		JOINT upperback
		{
			OFFSET 0.004488 0.137956 0.026820
			CHANNELS 3 Zrotation Yrotation Xrotation
			JOINT chest
			{
				OFFSET -0.002265 0.056032 0.002855
				CHANNELS 3 Zrotation Yrotation Xrotation
				JOINT lowerneck
				{
					OFFSET -0.013390 0.211636 -0.033468
					CHANNELS 3 Zrotation Yrotation Xrotation
					JOINT upperneck
					{
						OFFSET 0.010113 0.088937 0.050410
						CHANNELS 3 Zrotation Yrotation Xrotation
						End Site
						{
							OFFSET 0.000000 0.000000 0.000000
						}
					}
				}
				JOINT lclavicle
				{
					OFFSET 0.071702 0.114000 -0.018898
					CHANNELS 3 Zrotation Yrotation Xrotation
					JOINT lshoulder
					{
						OFFSET 0.122921 0.045205 -0.019046
						CHANNELS 3 Zrotation Yrotation Xrotation
						JOINT lelbow
						{
							OFFSET 0.255332 -0.015649 -0.022946
							CHANNELS 3 Zrotation Yrotation Xrotation
							JOINT lwrist
							{
								OFFSET 0.265709 0.012698 -0.007375
								CHANNELS 3 Zrotation Yrotation Xrotation
								End Site
								{
									OFFSET 0.000000 0.000000 0.000000
								}
							}
						}
					}
				}
				JOINT rclavicle
				{
					OFFSET -0.082954 0.112472 -0.023707
					CHANNELS 3 Zrotation Yrotation Xrotation
					JOINT rshoulder
					{
						OFFSET -0.113228 0.046853 -0.008472
						CHANNELS 3 Zrotation Yrotation Xrotation
						JOINT relbow
						{
							OFFSET -0.260127 -0.014369 -0.031269
							CHANNELS 3 Zrotation Yrotation Xrotation
							JOINT rwrist
							{
								OFFSET -0.269108 0.006794 -0.006027
								CHANNELS 3 Zrotation Yrotation Xrotation
								End Site
								{
									OFFSET 0.000000 0.000000 0.000000
								}
							}
						}
					}
				}
			}
		}
	}
}
MOTION
Frames: 16
Frame Time: 0.033333
-0.055754 -0.992648 0.976425 -124.487686 0.936369 120.719441 9.412033 -3.069765 -29.133423 -2.310250 25.688346 -2.358540 0.411821 9.761480 -4.684984 0.000000 -0.000000 0.000000 -9.443102 -3.097576 -35.156783 -3.408299 -17.194018 5.545450 5.746565 -17.773929 -1.916585 0.000000 -0.000000 0.000000 -4.813765 2.775600 -46.138015 3.456517 -2.104668 18.093613 -1.779577 -2.916113 0.250802 0.843479 15.365201 -0.371577 -3.942668 22.013321 -3.155988 -28.196365 3.219449 10.427213 -56.512157 -11.883815 11.181249 11.907809 -20.236804 -4.876553 3.202685 -13.154021 -5.355890 25.764202 -3.143207 13.397390 51.187370 18.150594 12.641171 -12.843936 24.857474 -16.817465 18.696612 16.189413 -32.255656 
-0.053183 -0.988032 0.976204 -124.268539 1.269274 120.165976 9.836359 -2.758069 -28.483359 -1.978753 25.134797 -2.332245 0.532540 9.884870 -4.545702 0.000000 -0.000000 0.000000 -9.453923 -1.546012 -34.039925 -3.602022 -15.152029 5.561568 4.239756 -18.027089 -2.357271 0.000000 -0.000000 0.000000 -3.582596 2.589356 -44.674630 3.133165 -2.076846 16.684431 -1.915142 -2.811608 0.469761 0.596932 14.690969 0.144249 -3.331490 22.502256 -3.101234 -28.315693 2.966768 10.659658 -56.830093 -11.546427 10.837962 10.975050 -20.682662 -3.762388 4.421698 -13.283414 -6.208611 25.969446 -2.994949 14.397306 50.751459 17.281341 12.681366 -12.251590 26.323695 -13.384477 14.114033 15.522324 -28.732727 
-0.049953 -0.981410 0.976100 -123.754730 1.821540 119.337266 10.869474 -2.252192 -27.396048 -2.307927 24.542975 -2.749214 -0.048495 9.915519 -4.149333 0.000000 -0.000000 0.000000 -9.379741 0.460026 -32.567611 -3.150045 -15.971255 4.961055 3.007465 -19.264546 -2.906432 0.000000 -0.000000 0.000000 -2.148960 2.112628 -43.272040 3.057078 -2.160748 15.888682 -2.014235 -2.836316 0.644555 0.541187 14.437692 0.537036 -3.116570 22.380565 -3.155455 -28.568154 2.970678 10.820063 -57.065876 -11.392321 10.846120 10.291097 -21.354530 -1.831031 6.175681 -12.992041 -6.299049 25.820785 -2.997343 14.912521 50.758623 15.958573 14.355982 -10.253838 28.679066 -6.955835 4.061972 14.762350 -26.268560 
-0.043467 -0.969292 0.975363 -123.330482 2.840696 117.342663 12.215541 -0.663419 -25.156740 -2.173548 24.089599 -2.551735 -1.355249 9.401407 -3.897733 0.000000 -0.000000 0.000000 -7.870618 1.603239 -29.655231 -2.326256 -16.652146 3.905225 2.229238 -19.105608 -3.138837 0.000000 -0.000000 0.000000 0.110705 1.866922 -39.991128 2.708400 -2.376315 14.614396 -2.052085 -2.982437 0.865630 0.249692 14.208620 0.053881 -2.375144 22.458706 -2.705833 -28.400833 2.458521 10.418308 -58.147285 -10.992735 10.678118 9.907077 -22.305521 -0.640978 5.713667 -12.763612 -6.364831 24.875053 -2.575387 13.742242 50.840885 15.500411 13.446762 -8.353837 26.372831 -6.744957 1.018528 14.034295 -26.571697 
-0.040551 -0.964815 0.975226 -123.326694 3.152038 116.797704 12.683282 -0.054607 -24.609413 -2.151302 23.822956 -2.356081 -1.762866 9.283115 -3.843483 0.000000 -0.000000 0.000000 -7.176248 1.489219 -28.892942 -1.972043 -16.541242 3.552584 2.103185 -18.748433 -3.211743 0.000000 -0.000000 0.000000 0.743647 1.792920 -38.917136 2.610271 -2.465783 14.031538 -1.985577 -2.983549 0.890059 0.170032 13.870388 -0.088946 -2.068348 22.504444 -2.329256 -28.485410 2.409820 10.334505 -58.284531 -10.946316 10.553698 9.517408 -22.518904 0.024011 5.768936 -12.770581 -6.632498 24.584096 -2.415642 13.748580 50.835761 15.262371 13.021677 -7.749428 25.410796 -6.841852 -1.063911 13.571384 -27.614659 
-0.034173 -0.955777 0.975251 -123.415996 3.665056 116.194112 13.647443 0.935837 -24.186228 -1.977354 23.490602 -1.658394 -1.911859 8.224474 -2.405971 0.000000 -0.000000 0.000000 -5.877207 0.956920 -27.835635 -1.076278 -16.232686 2.608452 1.537395 -17.844230 -3.132843 0.000000 -0.000000 0.000000 1.713795 1.759442 -37.856783 2.609240 -2.707270 13.635552 -1.861827 -3.115767 0.839420 -0.005012 13.239476 -0.403161 -1.570639 22.542713 -1.421099 -28.783861 2.282378 10.302410 -58.440315 -11.110040 10.181810 9.071334 -22.972778 0.606589 4.803477 -12.787925 -6.516632 24.428099 -2.307436 13.955046 50.206290 15.326437 11.458225 -7.536808 23.196100 -7.612261 -1.962637 13.187904 -27.197846 
-0.026782 -0.945972 0.975470 -123.484300 4.208402 115.750630 14.918008 1.827242 -24.166892 -1.724664 23.219872 -0.387350 -2.352848 7.633991 -1.779150 0.000000 -0.000000 0.000000 -4.594524 0.629085 -26.913073 -0.235461 -15.920914 1.670152 1.257318 -16.930792 -3.188135 0.000000 -0.000000 0.000000 2.507034 1.734672 -36.890416 2.775320 -3.048781 13.249126 -1.683128 -3.095273 0.791487 0.002878 13.186633 -0.749172 -1.289849 22.459952 -0.797600 -28.889245 2.091852 10.019692 -58.818263 -11.158234 10.046941 8.725995 -23.326254 1.357896 4.149706 -12.811758 -6.385874 24.067825 -2.461672 13.689257 49.838334 15.337236 9.775769 -7.469186 20.636105 -8.664374 -1.859202 13.005003 -26.501645 
-0.018868 -0.934838 0.975533 -123.685128 4.742151 114.536071 16.315001 3.020080 -23.471564 -1.797643 23.182962 1.283470 -3.248499 7.232883 -1.960832 0.000000 -0.000000 0.000000 -3.238137 0.906117 -24.851054 0.303358 -15.154842 0.334097 0.879774 -16.405446 -3.543107 0.000000 -0.000000 0.000000 3.190379 1.740167 -34.860564 2.881329 -3.176919 12.920332 -1.451516 -3.162556 0.479195 -0.128872 12.713109 -1.205746 -0.902328 22.345651 -0.050060 -28.952138 1.886506 9.736011 -58.868282 -11.063228 9.765909 8.355529 -24.118048 2.099072 3.958045 -12.882744 -6.171699 24.031176 -2.286186 13.331405 49.322479 14.728924 8.410120 -7.474220 18.411598 -9.596848 -2.177384 13.169718 -26.183404 
-0.011667 -0.922929 0.975064 -123.362871 5.152989 113.055431 18.013003 3.699267 -22.830605 -1.940393 22.497545 3.443722 -4.235792 7.415566 -2.023500 0.000000 -0.000000 0.000000 -2.519425 2.171205 -21.963957 1.244007 -14.925855 -1.576536 0.170953 -16.921381 -3.665341 0.000000 -0.000000 0.000000 4.205957 1.353784 -32.731053 2.844202 -3.312418 12.829228 -1.424675 -3.192718 0.176606 -0.333749 11.859390 -1.435310 -0.549969 22.565672 0.114161 -29.137319 1.763597 9.656357 -58.342667 -11.000036 9.162922 7.822496 -25.652806 2.817748 3.520840 -12.539109 -6.420898 23.787230 -2.037788 13.224752 48.880539 14.288756 7.071144 -7.077067 16.328815 -10.116447 -2.725798 13.143249 -26.243592 
-0.003803 -0.913106 0.974703 -123.588337 5.098281 111.403387 19.003758 4.519622 -22.565729 -1.746332 22.458111 6.436146 -4.995114 7.050756 -1.610487 0.000000 -0.000000 0.000000 -2.284169 1.866180 -19.695092 2.547517 -14.550668 -2.434459 -0.081272 -15.882285 -4.340749 0.000000 -0.000000 0.000000 5.005116 1.331321 -29.949131 2.493886 -3.249982 12.695814 -1.531426 -3.041888 -0.211837 -0.614842 11.547851 -1.944201 -0.243962 22.329737 0.077894 -29.368733 1.469704 9.159004 -57.573897 -10.721147 8.726031 7.466992 -27.315579 3.157367 3.080482 -12.711694 -6.577078 23.550157 -1.716903 12.846086 48.717105 13.707429 5.635343 -6.835357 14.463693 -11.736989 -3.113170 13.280574 -25.295796 
0.004173 -0.903287 0.974510 -123.902882 5.029452 110.227943 20.266179 5.344849 -23.081522 -1.766347 22.979732 9.940338 -5.434936 6.927884 -0.706442 0.000000 -0.000000 0.000000 -1.869108 1.507359 -18.195742 3.479563 -13.932686 -2.995052 -0.615366 -15.150630 -4.719876 0.000000 -0.000000 0.000000 5.524448 1.344014 -27.942547 2.323494 -3.146079 12.610913 -1.600107 -2.950006 -0.366351 -0.634338 11.008761 -2.220238 0.188141 22.354092 0.533511 -29.519204 1.357175 8.881311 -57.018810 -10.634230 8.392635 7.473384 -28.961734 3.388243 2.723712 -12.764219 -7.097683 23.379388 -1.384497 12.812186 48.125521 13.557565 4.373158 -6.522171 12.433355 -12.712704 -2.478144 13.303803 -24.375989 
0.011358 -0.896002 0.975506 -124.683164 4.459202 108.940417 20.732786 5.567159 -23.560625 -1.446787 23.675493 13.509916 -5.515376 7.361990 0.480310 0.000000 -0.000000 0.000000 -1.946223 0.814460 -17.020815 3.982794 -13.362695 -3.120916 -0.658075 -14.185929 -4.955106 0.000000 -0.000000 0.000000 5.640957 1.535655 -25.831476 2.022734 -2.883113 12.720010 -1.607424 -2.823582 -0.503657 -0.776679 10.383167 -2.369282 0.406079 22.206160 0.776771 -29.808029 1.173545 8.409857 -56.582010 -10.723275 8.163511 7.760776 -30.141128 2.981255 2.632073 -12.961661 -7.409277 23.172929 -0.874109 12.781493 47.427664 13.480348 3.362388 -6.211554 10.769291 -13.383309 -2.278252 13.169469 -23.003162 
0.017687 -0.890600 0.977533 -125.546688 3.802813 107.566717 20.966805 5.403172 -24.028680 -1.049252 23.841114 16.946397 -5.618578 7.724001 1.535003 0.000000 -0.000000 0.000000 -2.014056 0.285570 -15.847414 3.992961 -12.608161 -3.128813 -0.793209 -13.611834 -5.024446 0.000000 -0.000000 0.000000 5.777929 1.732472 -23.154341 1.653119 -2.532835 12.201920 -1.584849 -2.633457 -0.586322 -1.013701 9.549795 -2.193338 0.994282 22.201941 1.289832 -30.009437 0.970249 8.104763 -56.569864 -10.699127 7.974930 8.333204 -31.222654 2.293601 2.812871 -12.761459 -8.115133 22.875368 -0.233384 12.582111 46.846416 13.026216 2.617613 -6.145766 9.693690 -13.890961 -1.970410 13.114404 -21.133446 
0.022377 -0.886843 0.979941 -126.677825 3.015814 106.164054 20.711539 4.993074 -23.939898 -1.236968 22.981971 19.263446 -5.535728 7.493934 1.703475 0.000000 -0.000000 0.000000 -2.318699 -0.142210 -14.681612 3.766625 -11.777397 -3.090896 -0.671564 -13.031541 -4.927018 0.000000 -0.000000 0.000000 5.925851 1.798826 -20.406952 1.179021 -2.068663 11.506513 -1.525636 -2.351626 -0.557351 -1.307693 8.876742 -1.928617 1.470434 22.506456 1.771766 -30.172112 0.734198 7.950451 -56.811661 -10.389656 7.791087 8.986410 -32.320990 1.264613 3.359618 -12.715349 -8.715542 22.452961 0.600676 12.369107 46.293999 12.469856 1.923214 -6.218662 9.041597 -14.650055 -1.429259 13.201575 -19.607085 
0.025825 -0.884427 0.981832 -128.005864 2.414363 105.592005 20.434210 4.456103 -23.966074 -2.931992 19.817109 19.820332 -5.786125 5.306939 -0.583402 0.000000 -0.000000 0.000000 -2.650303 -0.454900 -14.581484 3.480036 -10.908814 -2.913693 -0.001690 -12.507542 -4.869179 0.000000 -0.000000 0.000000 6.230415 1.829378 -18.676325 0.905824 -1.566031 10.817058 -1.480505 -2.081195 -0.433533 -1.466597 8.645384 -1.688929 1.575669 22.826252 2.244373 -30.555434 0.775651 7.690541 -56.887733 -9.863835 7.934842 9.179957 -33.261854 0.397723 3.931647 -12.913480 -9.304159 22.025984 1.049862 11.912214 45.278741 11.855318 1.371058 -6.154709 9.080640 -15.215897 -0.674162 13.100766 -18.241017 
0.027332 -0.883843 0.983379 -129.692194 1.934079 105.442669 19.820656 3.896097 -24.049466 -4.803054 16.182690 19.511460 -6.811702 2.103391 -1.651786 0.000000 -0.000000 0.000000 -3.195500 -0.508335 -15.048986 3.355827 -10.193228 -2.621155 0.566509 -11.952558 -4.495822 0.000000 -0.000000 0.000000 6.773709 1.922973 -17.743855 0.665524 -1.032765 10.435675 -1.573607 -1.849904 -0.432203 -1.663284 8.583048 -0.977857 1.304324 23.230380 2.349863 -30.985880 0.883250 7.527232 -56.973518 -9.153409 8.213842 9.266484 -33.853134 -0.008976 3.959537 -13.497465 -9.507448 21.759979 1.377527 11.659319 43.760290 11.690686 0.546741 -5.897793 9.114825 -15.708117 0.052320 13.339876 -17.154986 
